<svg width="610" height="572" viewBox="0 0 610 572" fill="none" xmlns="http://www.w3.org/2000/svg">
<g clip-path="url(#clip0_5_3060)">
<path d="M150.438 570.287L118.477 465.809L114.638 453.205L49.352 239.701C37.3098 200.311 29.149 176.821 25.1823 169.993C21.2726 163.464 13.8084 159.25 2.83256 157.52L1.65251 157.329V143.423H142.547V157.555H136.363C124.05 157.555 118.349 159.692 114.013 163.894C110.984 166.687 109.463 170.852 109.463 176.319C109.548 180.579 110.105 184.823 111.127 188.996C112.264 193.913 116.074 207.031 122.813 229.101L155.243 336.038L152.94 33.3228C152.457 32.4395 147.253 30.7923 145.035 30.7923H129.609C112.221 30.7923 99.4257 37.2379 91.6061 49.8903C80.7014 67.4128 73.6069 92.5386 70.4364 124.611C70.1805 127.297 67.9199 129.386 65.3039 129.386C62.233 129.386 59.9155 126.999 59.9155 124.098V6.69301C59.9155 3.76863 62.233 1.39331 65.0764 1.39331H297.147C299.991 1.39331 302.308 3.78056 302.308 6.69301V124.134C302.308 127.046 299.991 129.422 297.147 129.422C294.588 129.422 292.385 127.476 292.015 124.898C287.977 97.9696 283.485 78.2509 278.636 66.2908C273.603 53.9367 266.651 43.958 257.964 36.653C253.301 32.7618 244.77 30.7923 232.643 30.7923H216.592C214.388 30.7923 207.109 32.344 205.943 33.5377V362.441L240.946 251.709C247.87 229.603 252.163 214.623 253.742 207.186C255.177 200.932 255.981 194.587 256.144 188.22C256.248 182.915 255.118 177.644 252.818 172.703C250.921 168.583 247.567 165.051 243.207 162.581C237.207 159.25 229.117 157.567 219.151 157.567H217.729V143.423H316.91V157.257L315.858 157.555C305.578 159.883 296.238 167.797 288.091 181.058C282.105 191.144 273.035 215.219 261.149 252.616L159.594 570.287H150.438Z" fill="white"/>
<path d="M149.428 571.744L117.169 466.227L113.33 453.575L48.044 240.119C36.0303 200.801 27.9263 177.453 23.8743 170.709C20.192 164.55 12.9838 160.575 2.54821 158.904L0.230774 158.534V142.038H143.827V158.952H136.363C123.652 158.952 118.747 161.22 114.951 164.92C112.108 167.498 110.828 171.211 110.828 176.331C110.947 180.481 111.523 184.613 112.548 188.673C113.672 193.448 117.596 206.96 124.207 228.684L153.907 326.561L151.646 34.1226C149.651 33.1107 147.421 32.4677 145.106 32.2367H129.609C112.42 32.2247 100.378 38.1929 92.644 50.6782C81.981 68.0335 74.9433 92.8967 71.8013 124.755C71.4601 128.192 68.6735 130.794 65.3039 130.794C61.4794 130.794 58.5364 127.798 58.5364 124.11V6.69307C58.5222 3.00476 61.4794 -0.00317383 65.0764 -0.00317383H297.147C300.744 -0.00317383 303.687 3.00476 303.687 6.69307V124.134C303.687 127.822 300.744 130.818 297.147 130.818C293.92 130.818 291.133 128.359 290.664 125.101C286.641 98.2919 282.134 78.6807 277.371 66.828C272.423 54.6888 265.599 44.8891 257.097 37.7393C252.647 34.0868 244.401 32.2128 232.643 32.2128H216.592C213.38 32.4842 210.243 33.198 207.308 34.3255V353.561L239.652 251.279C246.548 229.209 250.827 214.277 252.377 206.888C253.792 200.733 254.577 194.487 254.723 188.22C254.829 183.12 253.747 178.051 251.538 173.299C249.776 169.406 246.616 166.07 242.496 163.75C236.695 160.54 228.833 158.916 219.094 158.916H216.336V142.038H318.26V158.391L316.128 158.88C306.176 161.136 297.162 168.835 289.228 181.774C283.3 191.741 274.272 215.721 262.428 253.01L160.589 571.744H149.428Z" fill="white"/>
<path d="M219.08 144.819V156.135C229.345 156.135 237.581 157.862 243.789 161.315C248.416 163.934 251.97 167.684 253.969 172.058C256.373 177.211 257.552 182.71 257.438 188.244C257.3 194.71 256.505 201.155 255.064 207.509C253.472 215.06 249.206 229.945 242.268 252.162L204.592 371.346V33.3108C204.592 31.1623 214.544 29.3958 216.606 29.3958H232.657C245.14 29.3958 253.87 31.4488 258.846 35.5549C267.774 43.0508 274.798 53.1091 279.916 65.7297C284.816 77.857 289.304 97.5041 293.38 124.671C293.424 125.516 293.831 126.319 294.527 126.932C295.222 127.544 296.158 127.924 297.162 128.001C298.277 127.902 299.3 127.438 300.01 126.709C300.721 125.981 301.061 125.047 300.958 124.11V6.69298C301.061 5.75568 300.721 4.82187 300.01 4.09363C299.3 3.36539 298.277 2.90129 297.162 2.80176H65.0765C63.9615 2.90129 62.9381 3.36539 62.2277 4.09363C61.5173 4.82187 61.1769 5.75568 61.2804 6.69298V124.134C61.1769 125.071 61.5173 126.005 62.2277 126.733C62.9381 127.461 63.9615 127.926 65.0765 128.025H65.3039C66.3468 127.922 67.3079 127.5 68.0031 126.839C68.6983 126.179 69.0787 125.326 69.0715 124.444C72.2752 92.0253 79.3839 66.9313 90.3977 49.1622C98.53 35.9925 111.601 29.4037 129.609 29.3958H145.092C147.168 29.3958 154.362 31.1623 154.362 33.3108L156.779 345.504L121.534 229.519C114.899 207.7 110.994 194.295 109.819 189.306C108.762 185.024 108.186 180.668 108.098 176.295C108.098 170.391 109.757 165.911 113.074 162.855C117.695 158.379 123.638 156.135 136.363 156.135H141.125V144.819H2.96053V156.135C14.3345 157.949 22.154 162.354 26.2771 169.265C30.4002 176.176 38.5041 199.535 50.66 239.283L115.946 452.787L119.785 465.392L151.433 568.891H158.542L191.626 465.392L208.459 412.693L259.77 252.138C271.741 214.42 280.745 190.464 286.783 180.27C295.162 166.639 304.702 158.594 315.403 156.135V144.819H219.08Z" fill="white"/>
<path d="M299.38 333.615C297.979 335.538 296.161 337.222 294.02 338.581C292.652 339.36 291.037 339.776 289.385 339.775C287.936 339.749 286.511 339.453 285.215 338.908C283.919 338.363 282.784 337.582 281.892 336.623C278.758 333.333 276.978 329.28 276.817 325.069H304.484V324.234C304.199 317.537 302.095 312.381 298.242 308.895C296.386 307.164 294.113 305.783 291.574 304.842C289.035 303.902 286.288 303.424 283.513 303.441C280.237 303.426 276.994 303.989 273.994 305.093C270.994 306.197 268.304 307.818 266.097 309.85C261.32 313.921 258.988 319.531 258.988 326.382C258.788 331.401 260.452 336.349 263.751 340.538C267.845 345.48 274.073 347.975 282.233 347.975C286.741 348.048 291.171 346.979 294.944 344.907C298.399 342.961 301.555 339.667 304.313 335.095L304.583 334.654L300.318 332.434L299.38 333.615ZM286.911 311.939C287.654 314.763 287.965 317.655 287.835 320.545H276.461V319.889C276.461 315.532 277.485 312.082 279.518 309.623C279.827 309.154 280.266 308.754 280.798 308.457C281.33 308.159 281.939 307.974 282.575 307.917C283.177 307.892 283.768 308.053 284.238 308.37C285.535 309.308 286.467 310.551 286.911 311.939ZM349.979 334.069L353.69 336.397L353.42 336.802C351.296 340.242 348.097 343.13 344.164 345.158C340.398 347.04 336.094 348.03 331.71 348.022C328.375 348.135 325.054 347.602 322.004 346.463C318.954 345.325 316.257 343.612 314.123 341.458C309.993 337.228 307.799 331.898 307.938 326.43C307.857 321.085 309.854 315.864 313.625 311.557C318.317 306.198 324.999 303.488 333.388 303.488C339.075 303.488 343.766 304.682 347.15 306.986C350.534 309.289 352.069 311.76 352.069 314.517C352.103 315.328 351.935 316.135 351.575 316.887C351.215 317.64 350.671 318.32 349.979 318.886C348.246 320.167 345.988 320.835 343.681 320.748C342.462 320.788 341.246 320.624 340.104 320.266C338.961 319.907 337.916 319.361 337.027 318.659C335.506 317.466 334.582 315.329 334.184 312.273C334.184 311.018 333.684 309.8 332.762 308.812C332.402 308.45 331.896 308.212 331.34 308.143C330.047 308.143 328.966 309.206 328.426 309.85C326.663 311.951 325.767 315.293 325.767 319.757C325.747 323.42 326.498 327.057 327.985 330.5C329.077 333.403 331.122 335.989 333.885 337.96C335.519 338.998 337.524 339.541 339.572 339.5C340.942 339.503 342.293 339.228 343.51 338.7C345.476 337.745 347.251 336.536 348.771 335.119L349.979 334.069ZM412.82 343.618L414.157 343.749V346.781H385.281V343.761L386.561 343.618C387.673 343.518 388.695 343.055 389.404 342.329C389.689 341.983 390.229 340.825 390.229 337.172V319.101C390.36 317.04 390.202 314.972 389.76 312.942C389.547 312.298 389.093 311.729 388.466 311.318C388.083 311.06 387.607 310.917 387.115 310.913C386.049 310.956 385.024 311.268 384.172 311.808C382.584 312.874 381.228 314.162 380.163 315.616V337.16C380.163 340.634 380.533 341.875 380.845 342.293C381.197 342.697 381.657 343.027 382.188 343.255C382.719 343.483 383.306 343.603 383.902 343.606L385.182 343.749V346.757H356.406V343.761L357.827 343.654C358.449 343.653 359.064 343.547 359.636 343.342C360.207 343.137 360.724 342.837 361.154 342.46C361.382 342.221 361.908 341.267 361.908 337.22V296.016C361.908 292.053 361.282 290.931 361.012 290.645C360.116 289.985 358.962 289.624 357.77 289.63L356.462 289.499V286.467H380.291V307.952C381.783 306.871 383.42 305.938 385.167 305.171C387.716 304.093 390.531 303.533 393.385 303.536C396.762 303.46 400.073 304.329 402.797 306.007C405.033 307.359 406.712 309.261 407.603 311.45C408.509 314.727 408.887 318.091 408.726 321.452V337.256C408.726 341.123 409.309 342.329 409.65 342.699C410.522 343.308 411.63 343.627 412.763 343.594L412.82 343.618ZM474.126 343.618L475.548 343.737V346.781H446.658V343.761L447.966 343.63C448.536 343.59 449.087 343.443 449.579 343.199C450.072 342.955 450.492 342.621 450.809 342.221C451.108 341.863 451.577 340.753 451.577 337.137V319.101C451.69 317.052 451.538 314.999 451.122 312.978C450.907 312.319 450.443 311.737 449.8 311.318C449.444 311.068 448.998 310.925 448.535 310.913C446.317 310.913 443.843 312.56 441.554 315.568V337.113C441.554 340.92 442.137 342.162 442.478 342.556C442.824 342.88 443.246 343.142 443.719 343.322C444.191 343.503 444.703 343.6 445.222 343.606L446.516 343.737V346.757H417.768V343.761L419.19 343.642C419.807 343.641 420.418 343.534 420.985 343.329C421.552 343.124 422.063 342.824 422.488 342.448C422.716 342.209 423.256 341.255 423.256 337.16V314.255C423.256 310.435 422.687 309.242 422.346 308.86C421.448 308.212 420.303 307.856 419.119 307.857L417.825 307.714V304.646H441.625V307.869C443.076 306.83 444.659 305.93 446.345 305.183C449.039 304.017 452.03 303.419 455.06 303.441C458.47 303.327 461.819 304.218 464.529 305.959C466.757 307.423 468.366 309.448 469.121 311.736C469.733 313.419 470.017 316.57 470.017 321.357V337.113C470.017 341.016 470.586 342.233 470.927 342.615C471.795 343.255 472.914 343.604 474.069 343.594L474.126 343.618ZM485.599 297.723C484.756 297.065 484.083 296.268 483.623 295.382C483.163 294.496 482.925 293.539 482.925 292.573C482.925 291.606 483.163 290.649 483.623 289.763C484.083 288.877 484.756 288.08 485.599 287.422C487.55 285.851 490.162 284.993 492.864 285.035C494.218 284.999 495.566 285.192 496.828 285.602C498.091 286.012 499.243 286.631 500.215 287.422C501.062 288.079 501.738 288.876 502.198 289.764C502.658 290.652 502.893 291.61 502.888 292.579C502.896 293.548 502.66 294.507 502.195 295.394C501.729 296.281 501.044 297.075 500.186 297.723C498.181 299.23 495.584 300.064 492.893 300.064C490.201 300.064 487.604 299.23 485.599 297.723ZM506.684 343.606L508.106 343.69V346.781H477.595V343.654H479.145C479.813 343.678 480.479 343.584 481.101 343.379C481.723 343.173 482.287 342.86 482.756 342.46C483.026 342.221 483.637 341.267 483.637 337.566V313.921C483.637 310.34 482.969 309.146 482.571 308.824C482.173 308.502 481.462 308 479.074 307.881L477.652 307.809V304.658H502.063V337.554C502.063 341.135 502.731 342.329 503.115 342.663C504.116 343.314 505.363 343.641 506.627 343.582L506.684 343.606ZM552.322 334.057L556.032 336.385L555.748 336.802C553.603 340.213 550.407 343.078 546.493 345.098C542.725 346.98 538.422 347.97 534.038 347.963C530.703 348.075 527.382 347.542 524.332 346.403C521.282 345.265 518.586 343.552 516.451 341.398C512.305 337.174 510.101 331.842 510.238 326.37C510.156 321.025 512.153 315.804 515.925 311.497C520.588 306.138 527.299 303.429 535.687 303.429C541.374 303.429 546.066 304.622 549.45 306.926C552.833 309.23 554.369 311.7 554.369 314.458C554.407 315.273 554.236 316.086 553.868 316.842C553.5 317.598 552.944 318.278 552.236 318.838C550.507 320.1 548.27 320.762 545.981 320.688C544.762 320.728 543.546 320.564 542.404 320.205C541.262 319.846 540.216 319.301 539.327 318.6C537.763 317.334 536.853 315.245 536.483 312.202C536.478 310.961 536.005 309.754 535.133 308.752C534.776 308.387 534.268 308.148 533.711 308.084C533.114 308.164 532.547 308.359 532.054 308.653C531.561 308.946 531.155 309.332 530.868 309.779C529.076 311.915 528.166 315.245 528.166 319.698C528.154 323.362 528.914 326.999 530.413 330.44C531.485 333.345 533.522 335.933 536.284 337.901C537.924 338.93 539.925 339.472 541.971 339.44C543.341 339.439 544.691 339.165 545.91 338.641C547.873 337.682 549.648 336.474 551.17 335.06L552.322 334.057ZM606.533 314.482C604.565 311.081 601.417 308.26 597.505 306.389C593.44 304.426 588.829 303.405 584.14 303.429C576.193 303.429 569.923 305.816 565.416 310.364C561.167 314.732 558.886 320.217 558.975 325.857C558.895 331.384 561.123 336.761 565.274 341.052C569.653 345.611 576.051 347.927 584.282 347.927C592.514 347.927 599.268 345.408 603.931 340.443C607.747 336.202 609.714 330.99 609.504 325.678C609.526 321.804 608.49 317.978 606.476 314.494L606.533 314.482ZM581.126 342.15C579.838 340.943 579.032 339.428 578.823 337.817C578.303 334.973 578.056 332.1 578.084 329.223C578.084 323.446 578.283 318.862 578.695 315.616C579.178 311.724 580.245 310.077 581.055 309.385C581.478 309.01 581.988 308.712 582.552 308.506C583.116 308.301 583.724 308.194 584.339 308.191C585.183 308.148 586.019 308.355 586.699 308.776C588.024 309.733 588.967 311.007 589.401 312.429C590.069 314.183 590.396 317.537 590.396 322.395C590.396 330.667 590.04 336.229 589.344 338.927C589.029 340.363 588.159 341.671 586.87 342.651C586.098 343.172 585.13 343.443 584.14 343.415C583.551 343.404 582.972 343.286 582.442 343.07C581.912 342.854 581.444 342.544 581.069 342.162L581.126 342.15Z" fill="white"/>
</g>
<defs>
<clipPath id="clip0_5_3060">
<rect width="609.231" height="571.699" fill="white" transform="translate(0.230774 -0.00317383)"/>
</clipPath>
</defs>
</svg>
